<svg xmlns="http://www.w3.org/2000/svg" viewBox="0 0 300 300"><defs><style>.cls-1,.cls-2{fill:#e6002d;stroke-miterlimit:10;}.cls-1,.cls-2,.cls-3,.cls-6{stroke:#3c2313;}.cls-1,.cls-3{stroke-width:8px;}.cls-2{stroke-width:4px;}.cls-3{fill:#a77b50;}.cls-3,.cls-6{stroke-linecap:round;stroke-linejoin:round;}.cls-4{fill:#b48159;}.cls-5,.cls-7{fill:#232020;}.cls-5{opacity:0.2;}.cls-6{fill:#754c29;stroke-width:6px;}.cls-7{opacity:0.23;}</style></defs><title>logo2대지 4</title><g id="레이어_1" data-name="레이어 1"><path class="cls-1" d="M234.66,118c-2.43-4.84-5.37-9.41-7.62-14.33s-3.61-10.54-2.15-15.75c-2.89,3.37-5.39,9.54-5.07,14s1.41,8.81,1.32,13.25a24.57,24.57,0,0,1-11.61,20.21c10.74-15.39,10.51-37.6-.56-52.75-4.94-6.78-11.8-12.24-15.43-19.81-5-10.42-2.24-23.85,6.2-31.74a32,32,0,0,0-16,33c1.21,6.83,4.65,13,7.26,19.46s4.42,13.66,2.24,20.25c-1.42,4.27-5.26,8.29-9.74,7.81-4.69-.49-7.62-5.66-7.71-10.38s1.81-9.21,2.88-13.8,1.14-9.93-2-13.46A8.83,8.83,0,0,1,161.36,82a9.23,9.23,0,0,1-.15-11.26c-4.36,3.41-5.06,10-3.4,15.23s5.2,9.72,8.17,14.39,5.52,10,4.84,15.54c-.74,5.88-4.39,10.34-10.2,11.5a21,21,0,0,0,2.6-16.41c-1.44-5.51-4.36-9.76-9.38-12.45a25.09,25.09,0,0,1,.52,18.64c-1.64,4.4-5.46,8.75-10.13,8.28a8.62,8.62,0,0,1-6.55-5,16.13,16.13,0,0,1-1.27-8.39c.72-9.17,5.64-17.38,9.58-25.69s7-17.94,3.84-26.58c-2.11-5.8-6.73-10.27-11.28-14.44s-9.32-8.41-11.89-14-2.87-12.78,1.79-16.84a28.14,28.14,0,0,0-15.94,25.91c.26,7.26,3.37,14.1,6.82,20.49s7.32,12.66,9.34,19.64,2,15-2.16,21c-3.51,5.13-10,8.21-16.13,7.15S99,102.18,98.64,96c-.24-4.22,1.55-8.24,3.2-12.13s3.19-8.09,2.42-12.24-4.72-9.18-8.82-8.2a10.7,10.7,0,0,1,2.27,10.52c-1.34,3.52-5.37,6-9,5-3.2-.84-5.36-3.88-6.41-7a18.91,18.91,0,0,1,.57-13.37c1.81-4.18,4.75-8.14,8.89-10-10.6,2-18.46,13.42-16.61,24.06,1.64,9.44,9.39,16.54,13.2,25.33,5.1,11.77,1.94,25.67-7.26,34.61a38.29,38.29,0,0,0-3.32-23.41A34.39,34.39,0,0,0,62.26,93c9.23,10.15,12.07,26.33,7.2,39.15-10.55,27.77,6.58,64.33,33.88,83.69l106.27,1.54C236.84,186.69,247.22,143.09,234.66,118Z"/><path class="cls-2" d="M138.42,14.55c-3.32,2.73-3.94,7.82-2.44,11.85s4.7,7.18,8.05,9.89,7,5.14,9.79,8.38,4.83,7.53,4.14,11.78c2.93-6.14,1.69-14.84-3.12-19.65-2.37-2.36-5.39-3.95-8.26-5.69s-5.71-3.73-7.43-6.62S136.3,17.15,138.42,14.55Z"/><path class="cls-2" d="M183.93,26.88a43.31,43.31,0,0,0-15,19.25,17.81,17.81,0,0,0-1.52,7.38A8.33,8.33,0,0,0,170.74,60c-2-3.53-.29-7.36,2.21-10.56s5.89-5.67,8.22-9S186.48,30.05,183.93,26.88Z"/><path class="cls-3" d="M209.37,175.25c-5,.3-8.85-1.72-13.8-5.74-6.57-5.33-9.78-12.88-8.71-19A74.87,74.87,0,1,0,225.65,197C208.81,196.45,209.37,179.93,209.37,175.25Z"/><circle class="cls-4" cx="153.59" cy="219.32" r="51.28"/><circle class="cls-5" cx="113.05" cy="194.17" r="11.71" transform="translate(-103.41 254.43) rotate(-75.35)"/><circle class="cls-5" cx="149.86" cy="173.06" r="11.71" transform="translate(-43.73 295.25) rotate(-81.37)"/><circle class="cls-5" cx="208.77" cy="220.88" r="11.71"/><circle class="cls-5" cx="139.1" cy="265.67" r="11.71"/><circle class="cls-5" cx="169.33" cy="207.08" r="8.28"/><circle class="cls-5" cx="120.54" cy="229.09" r="8.28"/><circle class="cls-5" cx="175.07" cy="245.68" r="8.28"/><circle class="cls-6" cx="111.58" cy="192.7" r="10.24" transform="translate(-97.3 269.86) rotate(-80.2)"/><circle class="cls-6" cx="118.82" cy="228.12" r="7.24" transform="translate(-84.1 70.06) rotate(-24.57)"/><circle class="cls-6" cx="167.83" cy="207.08" r="7.24"/><circle class="cls-6" cx="172.74" cy="245.68" r="7.24"/><circle class="cls-6" cx="137.62" cy="265.54" r="10.24" transform="translate(-157.31 315.2) rotate(-72.16)"/><circle class="cls-6" cx="207.3" cy="219.32" r="10.24" transform="translate(-50.5 376.2) rotate(-77.94)"/><circle class="cls-6" cx="148.38" cy="171.59" r="10.24"/><path class="cls-7" d="M108.75,202.53c-5.47-1.47,3-3.94,4.49-9.4s-4.67-11.85.8-10.39a10.24,10.24,0,1,1-5.29,19.79Z"/><path class="cls-7" d="M145.74,181.48c-5.47-1.46,3-3.94,4.49-9.4s-4.67-11.85.8-10.39a10.24,10.24,0,0,1-5.29,19.79Z"/><path class="cls-7" d="M205.22,229.14c-5.46-1.46,3-3.94,4.5-9.4s-4.67-11.85.8-10.39a10.24,10.24,0,0,1-5.3,19.79Z"/><path class="cls-7" d="M135,275.43c-5.47-1.46,3-3.94,4.49-9.4s-4.67-11.85.8-10.39A10.24,10.24,0,1,1,135,275.43Z"/><path class="cls-7" d="M171.25,252.47c-3.78-1,2.09-2.72,3.1-6.49s-3.22-8.19.55-7.18a7.07,7.07,0,0,1-3.65,13.67Z"/><path class="cls-7" d="M166.17,213.87c-3.78-1,2.09-2.72,3.1-6.5s-3.22-8.19.55-7.18a7.08,7.08,0,0,1-3.65,13.68Z"/><path class="cls-7" d="M117.15,234.91c-3.78-1,2.1-2.72,3.11-6.49s-3.23-8.19.55-7.18a7.08,7.08,0,1,1-3.66,13.67Z"/></g></svg>