<svg xmlns="http://www.w3.org/2000/svg" viewBox="0 0 280 60"><defs><style>.cls-1{fill:#eee;}</style></defs><title>titlefont대지 2</title><g id="레이어_1" data-name="레이어 1"><path class="cls-1" d="M37.34,22.4a9.35,9.35,0,0,0,.27-2.27,2.94,2.94,0,0,0-.6-1.92,1.68,1.68,0,0,0-1.29-.73,3.1,3.1,0,0,0-1.34.32,7.43,7.43,0,0,0-1.31.87,3.41,3.41,0,0,0-.77,5,9.3,9.3,0,0,0,1.89,1.64c.75.51,1.56,1,2.44,1.57a12.29,12.29,0,0,1,2.46,2.05,11.85,11.85,0,0,1,2.62,8,12.73,12.73,0,0,1-4.48,10,15.67,15.67,0,0,1-10.78,3.78q-4.82,0-8.8-5l4.15-8a7.07,7.07,0,0,0,3,2.76A7.53,7.53,0,0,0,28,41.79a6.77,6.77,0,0,0,1.83-.21,4.5,4.5,0,0,0,1.34-.65,2.84,2.84,0,0,0,1.37-2.35,4,4,0,0,0-.88-2.51,12.64,12.64,0,0,0-2.16-2.17c-.85-.68-1.78-1.37-2.79-2.08A23.63,23.63,0,0,1,24,29.58q-3.06-2.7-3.06-5.67a9.38,9.38,0,0,1,1.72-5.46A17.11,17.11,0,0,1,27,14.16a22.86,22.86,0,0,1,5.69-2.87,16.79,16.79,0,0,1,5.22-1,13.31,13.31,0,0,1,3.48.38,6.88,6.88,0,0,1,2.32,1.13,6.17,6.17,0,0,1,2.13,5.08,9,9,0,0,1-.13,1.57c-.1.5-.18,1.06-.25,1.67Z"/><path class="cls-1" d="M40.78,50.71q5.74-25.23,7.88-39.12a35.11,35.11,0,0,1,9-1.78,11,11,0,0,1,4.73.84,7.73,7.73,0,0,1,2.82,2.24q1.9,2.54,1.91,7.35a16,16,0,0,1-1.15,6,18.09,18.09,0,0,1-3.06,5.13A15,15,0,0,1,58.5,34.9a11,11,0,0,1-5.2,1.33h-.6q-1,4.53-2.24,12.59Zm15.64-34.2Q55,24.34,53.85,30.39a6.56,6.56,0,0,0,3.67-3.13,12.09,12.09,0,0,0,1.86-6.59,4.62,4.62,0,0,0-.93-3.11A2.7,2.7,0,0,0,56.42,16.51Z"/><path class="cls-1" d="M78.63,10.56q-6.24,31.35-7.61,39a47.12,47.12,0,0,0-5.3.49c-2.52.32-3.81.5-3.88.54q1.74-6.27,3.22-13.67,3.39-16.9,4.82-25Z"/><path class="cls-1" d="M86,41.47a4.21,4.21,0,0,0,2.9-1.68,8.41,8.41,0,0,0,2-3.56l6.39,2.54a24,24,0,0,1-6.45,9,11.28,11.28,0,0,1-7.27,3,6.65,6.65,0,0,1-5.69-3.13,15.32,15.32,0,0,1-2.3-8.81A38,38,0,0,1,77,28.29a33.45,33.45,0,0,1,4.08-9.11,22.93,22.93,0,0,1,6.26-6.51,13.82,13.82,0,0,1,8-2.48,6.28,6.28,0,0,1,4.76,2.1A8.24,8.24,0,0,1,102,18v.7a4.51,4.51,0,0,1-.06.7l-7.33,1.95c-.43-.9-1-1.35-1.55-1.35a2.72,2.72,0,0,0-1.89,1,14.11,14.11,0,0,0-1.94,2.65,31.8,31.8,0,0,0-1.83,3.65,43,43,0,0,0-1.54,4.08,24.2,24.2,0,0,0-1.53,7.32C84.31,40.54,84.88,41.47,86,41.47Z"/><path class="cls-1" d="M111.22,27q1.8-4.43,5.91-16.43l8.69,1.9q-3,6-5.41,11l-3.5,7.13-2,4.22c-.68,1.37-1.29,2.65-1.84,3.83q-.81,4.11-2.57,10l-9.57,1.19,2.57-11.13q0-6.69-.54-14.8t-.66-9.35l-.11-1.19,9.13-3.45v9.61l0,5.41Z"/><path class="cls-1" d="M141.63,41.47a4.17,4.17,0,0,0,2.89-1.68,8.31,8.31,0,0,0,2-3.56l6.4,2.54a24,24,0,0,1-6.45,9,11.3,11.3,0,0,1-7.28,3,6.64,6.64,0,0,1-5.68-3.13,15.32,15.32,0,0,1-2.3-8.81,38,38,0,0,1,1.45-10.53,33.13,33.13,0,0,1,4.07-9.11A23.06,23.06,0,0,1,143,12.67a13.88,13.88,0,0,1,8-2.48,6.28,6.28,0,0,1,4.76,2.1A8.24,8.24,0,0,1,157.59,18v.7a4.43,4.43,0,0,1-.05.7l-7.33,1.95Q149.55,20,148.65,20a2.72,2.72,0,0,0-1.88,1,14.57,14.57,0,0,0-2,2.65A35.42,35.42,0,0,0,143,27.29q-.87,2-1.53,4.08a24.2,24.2,0,0,0-1.53,7.32C139.93,40.54,140.49,41.47,141.63,41.47Z"/><path class="cls-1" d="M183,22a31.53,31.53,0,0,1-1,7.3,35.4,35.4,0,0,1-2.6,7.35,30.73,30.73,0,0,1-3.8,6,28.51,28.51,0,0,1-4.51,4.49q-4.86,3.78-9.35,3.78a7.26,7.26,0,0,1-6-2.7q-2.41-3-2.41-8.65a35.56,35.56,0,0,1,2.9-13.29,35.9,35.9,0,0,1,7.6-11.88Q169,9.27,174.55,9.27a7.2,7.2,0,0,1,6.72,3.67Q183,15.91,183,22Zm-7.77,3.41q0-4.49-2.62-4.49c-2.23,0-4.23,1.08-6,3.25a22.5,22.5,0,0,0-3.66,7.07,22.35,22.35,0,0,0-1.2,6.92,3.5,3.5,0,0,0,1.85,3.24,2.2,2.2,0,0,0,1.26.38,6.6,6.6,0,0,0,4.46-1.7,14.52,14.52,0,0,0,3.25-4.19,22.8,22.8,0,0,0,2-5.32A22.48,22.48,0,0,0,175.2,25.37Z"/><path class="cls-1" d="M210.59,22a31.53,31.53,0,0,1-1,7.3,35.4,35.4,0,0,1-2.6,7.35,30.73,30.73,0,0,1-3.8,6,28.51,28.51,0,0,1-4.51,4.49q-4.87,3.78-9.35,3.78a7.24,7.24,0,0,1-6-2.7q-2.41-3-2.41-8.65a35.56,35.56,0,0,1,2.9-13.29,35.75,35.75,0,0,1,7.6-11.88q5.08-5.08,10.66-5.08a7.21,7.21,0,0,1,6.73,3.67Q210.59,15.91,210.59,22Zm-7.77,3.41q0-4.49-2.62-4.49c-2.23,0-4.23,1.08-6,3.25a22.5,22.5,0,0,0-3.66,7.07,22.09,22.09,0,0,0-1.21,6.92,3.51,3.51,0,0,0,1.86,3.24,2.2,2.2,0,0,0,1.26.38,6.6,6.6,0,0,0,4.46-1.7,14.52,14.52,0,0,0,3.25-4.19,22.8,22.8,0,0,0,2-5.32A22.48,22.48,0,0,0,202.82,25.37Z"/><path class="cls-1" d="M233.94,49c-1.75-.07-3.58-.11-5.5-.11s-3.93,0-6,.11q-1.1-7-2.19-15.07l-1,1.13c-.25,1.12-.54,2.49-.85,4.11s-.62,3.25-.95,4.89-.68,3.39-1,5.27l-9.08,1.35q5.91-27,7.05-40.42c.88.11,1.85.19,2.93.25s2.12.11,3.15.19,2.09.1,3.22.1c0,.15-.09.42-.16.82s-.17.88-.28,1.45-.22,1.22-.35,1.92-.31,1.64-.55,2.81-.54,2.77-.9,4.78l.33-.05q1.53-2.32,3.17-4.92,3.28-5.13,4.59-7.08c4.2-.32,7.91-.73,11.16-1.24q-9.51,12.75-13,18.32,1.22,5.56,2.9,10.78Z"/><path class="cls-1" d="M249.2,10.56q-6.24,31.35-7.61,39a47.12,47.12,0,0,0-5.3.49c-2.52.32-3.81.5-3.88.54q1.74-6.27,3.22-13.67,3.39-16.9,4.82-25Z"/><path class="cls-1" d="M244.38,50.71l7.33-39.33,17.72-1.52c-.26.83-.47,1.63-.66,2.41s-.36,1.54-.54,2.29-.33,1.43-.44,2c-1.09.11-2.59.16-4.49.16h-3.77l-2,9.94c2-.1,3.68-.18,5-.21s2.23-.07,2.63-.11c-.15,1.05-.28,2.06-.41,3.05s-.28,2-.47,3.06c-.4,0-1,.06-1.86.08s-1.71,0-2.62.08l-3.06.11-1.92,10.21,8.15-1.3L262.48,48Z"/></g></svg>